<?xml version="1.0" encoding="UTF-8"?>
<svg width="16px" height="16px" viewBox="0 0 16 16" version="1.1" xmlns="http://www.w3.org/2000/svg" xmlns:xlink="http://www.w3.org/1999/xlink">
    <!-- Generator: Sketch 50.2 (55047) - http://www.bohemiancoding.com/sketch -->
    <title>icon / font awesome / brands / playstation</title>
    <desc>Created with Sketch.</desc>
    <defs></defs>
    <g id="icon-/-font-awesome-/-brands-/-playstation" stroke="none" stroke-width="1" fill="none" fill-rule="evenodd">
        <path d="M15.8585789,11.2249567 C15.545234,11.6187175 14.782669,11.8987869 14.782669,11.8987869 L9.09532063,13.9396881 L9.09532063,12.4339688 L13.2797227,10.9421144 C13.7538995,10.7729636 13.8287695,10.5317158 13.4405546,10.4041595 C13.0551127,10.2766031 12.3563259,10.3126517 11.8821491,10.4845754 L9.09532063,11.4689775 L9.09532063,9.90502601 C9.73864819,9.68873485 10.4013865,9.52790296 11.1944541,9.43916812 C12.3285962,9.31438476 13.715078,9.4558059 14.8048527,9.86897748 C16.0305026,10.2571924 16.1691508,10.8311959 15.8585789,11.2249567 Z M9.63604854,8.65996534 L9.63604854,4.80554591 C9.63604854,4.35355284 9.55285963,3.93760829 9.12859619,3.81837086 C8.80415945,3.71299824 8.60173311,4.01525127 8.60173311,4.46724435 L8.60173311,14.1143848 L6.00069323,13.2880416 L6.00069323,1.78856149 C7.10710571,1.99376079 8.71819758,2.47902943 9.58336223,2.77019061 C11.7878683,3.52720968 12.5337955,4.47001731 12.5337955,6.59133448 C12.5337955,8.65719238 11.2582323,9.44194108 9.63604854,8.65996534 Z M1.22564987,12.2759099 C-0.0332756135,11.9209706 -0.244020849,11.1805893 0.329982621,10.7563258 C0.859618673,10.362565 1.76360481,10.0658579 1.76360481,10.0658579 L5.49324089,8.74038129 L5.49324089,10.2516465 L2.8090121,11.2110919 C2.33483532,11.3802427 2.26273827,11.6214905 2.64818021,11.7490468 C3.03362215,11.8766031 3.73240899,11.8405546 4.20658576,11.6686309 L5.49324089,11.2 L5.49324089,12.5532063 C4.06239166,12.8110919 2.68145577,12.7556326 1.22564987,12.2759099 Z" id="playstation" fill="#FFFFFF"></path>
    </g>
</svg>